<?xml version="1.0" encoding="UTF-8" standalone="no"?>
<!DOCTYPE svg PUBLIC "-//W3C//DTD SVG 1.1//EN" "http://www.w3.org/Graphics/SVG/1.1/DTD/svg11.dtd">
<svg width="100%" height="100%" viewBox="0 0 867 641" version="1.1" xmlns="http://www.w3.org/2000/svg" xmlns:xlink="http://www.w3.org/1999/xlink" xml:space="preserve" xmlns:serif="http://www.serif.com/" style="fill-rule:evenodd;clip-rule:evenodd;stroke-linejoin:round;stroke-miterlimit:2;">
    <g transform="matrix(1,0,0,1,-1166.798848,-318.568939)">
        <g transform="matrix(1.03125,0,0,1.03125,1105.519677,240.504028)">
            <path d="M896.595,429.512C889.652,479.8 867.089,600.345 700.591,664.741C621.793,695.218 517.087,697.709 515.893,696.21C513.95,693.769 557.132,621.436 609.361,567.369C641.42,534.181 670.267,504.439 748.833,447.983C782.517,423.778 783.669,425.676 786.558,423.535C796.44,416.21 776.459,426.395 775.647,426.809C745.618,442.116 640.139,481.327 549.973,604.832C545.235,611.322 520.955,644.579 497.765,690.639C496.532,693.087 495.17,697.639 493.639,696.369C493.204,696.008 489.884,590.912 541.694,500.607C604.944,390.362 721.361,350.248 891.537,333.933C899.022,333.215 896.953,336.948 897.635,344.489C901.871,391.353 897.106,424.697 896.595,429.512Z" style="fill:rgb(149,104,185);"/>
        </g>
        <g transform="matrix(1.03125,0,0,1.03125,1105.519677,240.504028)">
            <path d="M446.279,564.569C463.441,621.588 464.837,649.454 466.268,695.435C466.277,695.716 464.959,697.968 463.245,693.655C456.508,676.709 416.185,604.609 370.389,556.604C342.05,526.897 296.521,481.481 205.703,437.074C203.02,435.762 172.636,420.905 171.663,421.747C168.458,424.519 174.662,422.309 215.244,451.854C253.871,479.975 366.846,559.759 438.953,685.238C444.904,695.595 444.524,696.373 443.58,696.657C443.43,696.702 422.988,696.506 397.528,694.227C381.628,692.803 57.574,678.472 59.43,376.499C59.451,373.094 59.682,335.462 63.325,334.107C63.865,333.906 223.395,343.433 314.803,398.005C398.741,448.117 425.299,506.816 446.279,564.569Z" style="fill:rgb(149,104,185);"/>
        </g>
        <g transform="matrix(1.03125,0,0,1.03125,1105.519677,240.504028)">
            <path d="M479.726,595.161C472.867,577.156 464.866,433.163 314.345,363.831C302.916,358.567 302.953,358.761 291.424,353.638C288.861,352.498 289.776,350.995 300.925,338.901C329.463,307.945 427.522,254.534 545.406,280.974C548.067,281.571 621.081,298.578 661.29,340.696C671.615,351.512 670.572,352.957 669.456,353.423C598.492,383.093 527.707,424.975 491.86,547.604C490.914,550.843 484.043,574.348 481.796,588.566C481.06,593.221 481.961,593.832 479.726,595.161Z" style="fill:rgb(148,104,184);"/>
        </g>
        <g transform="matrix(1.03125,0,0,1.03125,1105.519677,240.504028)">
            <path d="M386.051,163.502C389.14,100.45 443.525,76.93 473.518,75.793C563.846,72.367 597.345,164.081 558.127,218.227C506.088,290.075 384.39,257.059 386.051,163.502Z" style="fill:rgb(148,104,185);"/>
        </g>
    </g>
</svg>
